{"title":"The Last Exorcism 2010 DvdScr Xvid Feel-Free","uid":5980701,"size":606722244,"categoryP":"video","categoryS":"movies","magnet":"?xt=urn:btih:51b13adde8e085fa4d15a171d2e8fcea007899a4&amp;dn=The+Last+Exorcism+2010+DvdScr+Xvid+Feel-Free&amp;tr=udp%3A%2F%2Ftracker.openbittorrent.com%3A80&amp;tr=udp%3A%2F%2Fopen.demonii.com%3A1337&amp;tr=udp%3A%2F%2Ftracker.coppersurfer.tk%3A6969&amp;tr=udp%3A%2F%2Fexodus.desync.com%3A6969","seeders":0,"leechers":0,"uploader":"hiest","files":-1,"time":1290585675,"description":"Genre:Horror | Thriller\nLanguage: English\nIMDB:http://www.imdb.com/title/tt1320244/\nSource:Source:DvDScr Rus/Audio:TWiZTED\n\nGeneral\nComplete name :The Last Exorcism 2010 Scr Xvid Feel-Free\nFormat : AVI\nFormat/Info : Audio Video Interleave\nFile size : 576 MiB\nDuration : 1h 23mn\nOverall bit rate : 964 Kbps\nVideo #0\nCodec ID : XVID\nCodec ID/Hint : XviD\nDuration : 1h 23mn\nBit rate : 829 Kbps\nWidth : 652 pixels\nHeight : 352 pixels\nDisplay aspect ratio : 1.852\nFrame rate : 23.976 fps\nResolution : 24 bits\nColorimetry : 4:2:0\nScan type : Progressive\nBits/(Pixel*Frame) : 0.151\nStream size : 496 MiB (86%)\nWriting library : XviD 1.2.1 (UTC 2008-12-04)\nAudio #1\nID : 1\nFormat : MPEG Audio\nFormat version : Version 1\nFormat profile : Layer 3\nCodec ID : 55\nCodec ID/Hint : MP3\nDuration : 1h 23mn\nBit rate mode : Variable\nBit rate : 123 Kbps\nNominal bit rate : 128 Kbps\nChannel(s) : 2 channels\nSampling rate : 48.0 KHz\nResolution : 16 bits\nStream size : 73.3 MiB (13%)\nAlignment : Aligned on interleaves\nInterleave, duration : 24 ms (0.58 video frame)\nInterleave, preload duration : 514 ms\nPlot\nA troubled evangelical minister agrees to let his last exorcism be filmed by a documentary crew","torrent":{"xt":"urn:btih:51b13adde8e085fa4d15a171d2e8fcea007899a4","amp;dn":"The+Last+Exorcism+2010+DvdScr+Xvid+Feel-Free","amp;tr":["udp%3A%2F%2Ftracker.openbittorrent.com%3A80","udp%3A%2F%2Fopen.demonii.com%3A1337","udp%3A%2F%2Ftracker.coppersurfer.tk%3A6969","udp%3A%2F%2Fexodus.desync.com%3A6969"],"infoHash":"51b13adde8e085fa4d15a171d2e8fcea007899a4","infoHashBuffer":{"type":"Buffer","data":[81,177,58,221,232,224,133,250,77,21,161,113,210,232,252,234,0,120,153,164]},"announce":[],"urlList":[]}}